<?xml version="1.0" standalone="no"?><!DOCTYPE svg PUBLIC "-//W3C//DTD SVG 1.1//EN" "http://www.w3.org/Graphics/SVG/1.1/DTD/svg11.dtd"><svg t="1554488142708" class="icon" style="" viewBox="0 0 1024 1024" version="1.1" xmlns="http://www.w3.org/2000/svg" p-id="2523" xmlns:xlink="http://www.w3.org/1999/xlink" width="200" height="200"><defs><style type="text/css"></style></defs><path d="M512 512m-512 0a512 512 0 1 0 1024 0 512 512 0 1 0-1024 0Z" fill="#FFDA44" p-id="2524"></path><path d="M208.457143 577.828571h36.571428a40.228571 40.228571 0 0 1 40.228572 40.228572v80.457143a40.228571 40.228571 0 0 1-40.228572 40.228571h-36.571428a40.228571 40.228571 0 0 1-40.228572-40.228571v-80.457143a40.228571 40.228571 0 0 1 40.228572-40.228572z m570.514286 0h36.571428a40.228571 40.228571 0 0 1 40.228572 40.228572v80.457143a40.228571 40.228571 0 0 1-40.228572 40.228571h-36.571428a40.228571 40.228571 0 0 1-40.228572-40.228571v-80.457143a40.228571 40.228571 0 0 1 40.228572-40.228572z" fill="#FFFFFF" p-id="2525"></path><path d="M219.428571 607.085714h58.514286v62.171429a40.228571 40.228571 0 0 1-40.228571 40.228571H219.428571a21.942857 21.942857 0 0 1-21.942857-21.942857v-58.514286a21.942857 21.942857 0 0 1 21.942857-21.942857z m526.628572 0h58.514286a21.942857 21.942857 0 0 1 21.942857 21.942857v58.514286a21.942857 21.942857 0 0 1-21.942857 21.942857h-18.285715a40.228571 40.228571 0 0 1-40.228571-40.228571V607.085714z" fill="#32C4EE" p-id="2526"></path><path d="M329.874286 245.540571l58.514285 101.376a18.234514 18.234514 0 0 1-6.729142 24.941715l-6.290286 3.657143a18.344229 18.344229 0 0 1-25.014857-6.656l-58.514286-101.376a18.234514 18.234514 0 0 1 6.729143-24.941715l6.290286-3.657143a18.344229 18.344229 0 0 1 25.014857 6.656z" fill="#FFF7D8" p-id="2527"></path><path d="M727.771429 258.998857a21.942857 21.942857 0 0 0-29.988572 7.972572l-80.457143 139.044571a21.942857 21.942857 0 0 0 38.034286 21.869714l80.457143-139.044571a21.8112 21.8112 0 0 0-8.045714-29.842286z" fill="#FFF7D8" p-id="2528"></path><path d="M512 307.2a285.257143 285.257143 0 0 1 285.257143 285.257143v155.062857a57.051429 57.051429 0 0 1-57.051429 57.051429H283.794286a57.051429 57.051429 0 0 1-57.051429-57.051429V592.457143a285.257143 285.257143 0 0 1 285.257143-285.257143zM307.2 204.8a51.2 51.2 0 1 1-51.2 51.2 51.163429 51.163429 0 0 1 51.2-51.2z" fill="#FFFFFF" p-id="2529"></path><path d="M621.714286 658.285714H409.6a73.142857 73.142857 0 0 1 0-146.285714h212.114286a73.142857 73.142857 0 0 1 0 146.285714z" fill="#8ED420" p-id="2530"></path><path d="M636.342857 577.828571H402.285714a14.628571 14.628571 0 0 1 0-29.257142h234.057143a14.628571 14.628571 0 0 1 0 29.257142z" fill="#9CDF34" p-id="2531"></path><path d="M307.2 256m-21.942857 0a21.942857 21.942857 0 1 0 43.885714 0 21.942857 21.942857 0 1 0-43.885714 0Z" fill="#FF8F44" p-id="2532"></path><path d="M731.428571 263.314286m-51.2 0a51.2 51.2 0 1 0 102.4 0 51.2 51.2 0 1 0-102.4 0Z" fill="#FFFFFF" p-id="2533"></path><path d="M731.428571 263.314286m-21.942857 0a21.942857 21.942857 0 1 0 43.885715 0 21.942857 21.942857 0 1 0-43.885715 0Z" fill="#FF8F44" p-id="2534"></path></svg>